<svg xmlns="http://www.w3.org/2000/svg" viewBox="0 0 64 64" role="img" aria-labelledby="title desc">
  <title id="title">Google Tasks style icon</title>
  <desc id="desc">A blue task list icon with Google color accents and a white check mark.</desc>
  <rect width="64" height="64" rx="14" fill="#fff"/>
  <path fill="#4285f4" d="M12 14h30c5.5 0 10 4.5 10 10v16c0 5.5-4.5 10-10 10H22c-5.5 0-10-4.5-10-10V14Z"/>
  <path fill="#34a853" d="M42 14c5.5 0 10 4.5 10 10v5H42V14Z"/>
  <path fill="#fbbc04" d="M42 29h10v11c0 5.5-4.5 10-10 10V29Z"/>
  <path fill="#fff" d="m27.4 37.2-7-7 3.4-3.4 3.6 3.6 11.1-11.1 3.4 3.4-14.5 14.5Z"/>
  <rect x="18" y="45" width="28" height="5" rx="2.5" fill="#ea4335"/>
</svg>
